<svg id="ai" xmlns="http://www.w3.org/2000/svg" xmlns:xlink="http://www.w3.org/1999/xlink" viewBox="0 0 300 300" shape-rendering="geometricPrecision" text-rendering="geometricPrecision"><g id="ai-s-g1" transform="matrix(1.050423 0 0 1.093108 5.566839-.302349)"><line id="ai-s-line1" x1="0" y1="26.3411" x2="0" y2="-26.3411" transform="translate(137.5 61.1589)" fill="none" stroke="#000" stroke-width="3"/><ellipse id="ai-s-ellipse1" rx="10" ry="10" transform="translate(108.865156 220.218146)" fill="none" stroke="#000" stroke-width="6" stroke-linecap="round" stroke-linejoin="round"/><rect id="ai-s-rect1" width="100" height="100" rx="25" ry="25" transform="translate(87.5 87.5)" fill="none" stroke="#000" stroke-width="6" stroke-linecap="round" stroke-linejoin="round"/><ellipse id="ai-s-ellipse2" rx="10" ry="10" transform="translate(137.5 24.8178)" fill="none" stroke="#000" stroke-width="6" stroke-linecap="round" stroke-linejoin="round"/><ellipse id="ai-s-ellipse3" rx="10" ry="10" transform="translate(137.5 250.1822)" fill="none" stroke="#000" stroke-width="6" stroke-linecap="round" stroke-linejoin="round"/><ellipse id="ai-s-ellipse4" rx="10" ry="10" transform="translate(167.327135 220.218146)" fill="none" stroke="#000" stroke-width="6" stroke-linecap="round" stroke-linejoin="round"/><line id="ai-s-line2" x1="0" y1="26.3411" x2="0" y2="-26.3411" transform="matrix(1 0 0 0.43123 108.865156 198.859073)" fill="none" stroke="#000" stroke-width="3"/><line id="ai-s-line3" x1="0" y1="26.3411" x2="0" y2="-26.3411" transform="matrix(1 0 0 0.43123 167.327135 198.859073)" fill="none" stroke="#000" stroke-width="3"/><ellipse id="ai-s-ellipse5" rx="10" ry="10" transform="translate(167.327135 54.781854)" fill="none" stroke="#000" stroke-width="6" stroke-linecap="round" stroke-linejoin="round"/><line id="ai-s-line4" x1="0" y1="26.3411" x2="0" y2="-26.3411" transform="translate(137.5 213.8411)" fill="none" stroke="#000" stroke-width="3"/><ellipse id="ai-s-ellipse6" rx="10" ry="10" transform="matrix(0-1 1 0 54.781854 111.897563)" fill="none" stroke="#000" stroke-width="6" stroke-linecap="round" stroke-linejoin="round"/><ellipse id="ai-s-ellipse7" rx="10" ry="10" transform="matrix(0-1 1 0 24.8178 137.5)" fill="none" stroke="#000" stroke-width="6" stroke-linecap="round" stroke-linejoin="round"/><ellipse id="ai-s-ellipse8" rx="10" ry="10" transform="matrix(0 1 1 0 250.1822 136.64014)" fill="none" stroke="#000" stroke-width="6" stroke-linecap="round" stroke-linejoin="round"/><ellipse id="ai-s-ellipse9" rx="10" ry="10" transform="matrix(0 1 1 0 220.218146 111.897563)" fill="none" stroke="#000" stroke-width="6" stroke-linecap="round" stroke-linejoin="round"/><ellipse id="ai-s-ellipse10" rx="10" ry="10" transform="matrix(0 1 1 0 220.218146 164.822158)" fill="none" stroke="#000" stroke-width="6" stroke-linecap="round" stroke-linejoin="round"/><line id="ai-s-line5" x1="0" y1="26.3411" x2="0" y2="-26.3411" transform="matrix(0 1 0.43123 0 198.859073 164.822158)" fill="none" stroke="#000" stroke-width="3"/><line id="ai-s-line6" x1="0" y1="26.3411" x2="0" y2="-26.3411" transform="matrix(1 0 0 0.43123 167.327135 76.140927)" fill="none" stroke="#000" stroke-width="3"/><line id="ai-s-line7" x1="0" y1="26.3411" x2="0" y2="-26.3411" transform="matrix(0 1 0.43123 0 198.859073 111.897563)" fill="none" stroke="#000" stroke-width="3"/><line id="ai-s-line8" x1="0" y1="26.3411" x2="0" y2="-26.3411" transform="matrix(0 1 1 0 213.8411 136.64014)" fill="none" stroke="#000" stroke-width="3"/><ellipse id="ai-s-ellipse11" rx="10" ry="10" transform="matrix(0-1 1 0 54.781854 164.822158)" fill="none" stroke="#000" stroke-width="6" stroke-linecap="round" stroke-linejoin="round"/><line id="ai-s-line9" x1="0" y1="26.3411" x2="0" y2="-26.3411" transform="matrix(0-1 0.43123 0 76.140927 164.822158)" fill="none" stroke="#000" stroke-width="3"/><ellipse id="ai-s-ellipse12" rx="10" ry="10" transform="translate(108.865156 54.781854)" fill="none" stroke="#000" stroke-width="6" stroke-linecap="round" stroke-linejoin="round"/><line id="ai-s-line10" x1="0" y1="26.3411" x2="0" y2="-26.3411" transform="matrix(0-1 0.43123 0 76.140927 111.897563)" fill="none" stroke="#000" stroke-width="3"/><line id="ai-s-line11" x1="0" y1="26.3411" x2="0" y2="-26.3411" transform="matrix(1 0 0 0.43123 108.865156 76.140927)" fill="none" stroke="#000" stroke-width="3"/><line id="ai-s-line12" x1="0" y1="26.3411" x2="0" y2="-26.3411" transform="matrix(0-1 1 0 61.1589 137.5)" fill="none" stroke="#000" stroke-width="3"/></g></svg>
