 <svg role="img" xmlns="http://www.w3.org/2000/svg" xmlns:xlink="http://www.w3.org/1999/xlink" viewBox="0 0 345 250" shape-rendering="geometricPrecision" text-rendering="geometricPrecision"><path id="sr-s-path1" d="M223.031252,45.939085L118.94503,116.326559l25.638242,16.35366h38.259904l-22.919512-16.649685l53.078859-34.56322l10.028729,21.69078v-57.219009Z" transform="matrix(1.412035 0 0 1.594975-166.243759-71.306061)" fill="#fff" stroke="#3f5787" stroke-width="0"/><path id="sr-s-path2" d="M223.031252,45.939085L118.94503,116.326559l25.638242,16.35366h38.259904l-22.919512-16.649685l53.078859-34.56322l10.028729,21.69078v-57.219009Z" transform="matrix(-1.412035 0 0-1.594975 346.243759 321.30606)" fill="#fff" stroke="#3f5787" stroke-width="0"/><path id="sr-s-path3" d="M63.980133,248.034367L200,135.768107l-35.388459-26.08368l67.641338,11.225993l59.903116,127.123947-71.774629-75.674434Q63.980135,247.079681,63.980133,248.034367Z" transform="translate(0 0.000001)" fill="#fff" stroke="#3f5787" stroke-width="0"/><path id="sr-s-path4" d="M164.611543,93.22852v-91.262888L343.682411,44.633883l-95.65015,60.441747l23.278473-42.033952-75.97554-27.192228v42.21462l36.917685,27.011561L164.611543,93.22852Z" fill="#fff" stroke="#3f5787" stroke-width="0"/></svg>